<svg id="Layer_1" data-name="Layer 1" xmlns="http://www.w3.org/2000/svg" viewBox="0 0 59.99 42.99"><path d="M55.9,44.4A18,18,0,0,0,40,18a16.37,16.37,0,0,0-1.72.09A18,18,0,0,0,8.1,37.4L2.36,42.24A1,1,0,0,0,3,44H14.06A17.92,17.92,0,0,0,24,47a16.37,16.37,0,0,0,1.72-.09A18,18,0,0,0,49.94,51H61a1,1,0,0,0,1-1,1,1,0,0,0-.36-.77ZM24,45a16,16,0,0,1-9.07-2.82.94.94,0,0,0-.56-.18H5.74L10,38.39a1,1,0,0,0,.22-1.27A16,16,0,0,1,36,18.46,18,18,0,0,0,24.42,45Zm2.63-.24A16,16,0,0,1,37.37,20.23a16,16,0,0,1-4.56,22.11A15.68,15.68,0,0,1,26.63,44.76Zm23,4.24a1,1,0,0,0-.57.18A15.94,15.94,0,0,1,28,46.54,17.94,17.94,0,0,0,39.57,20L40,20A16,16,0,0,1,53.76,44.12,1,1,0,0,0,54,45.39L58.26,49Z" transform="translate(-2.01 -11.01)"/><rect x="28.99" y="19.99" width="2" height="2"/><rect x="24.99" y="19.99" width="2" height="2"/><rect x="32.99" y="19.99" width="2" height="2"/></svg>