<?xml version="1.0" encoding="utf-8"?>
<!-- Generator: Adobe Illustrator 26.1.0, SVG Export Plug-In . SVG Version: 6.00 Build 0)  -->
<svg version="1.1" id="Layer_1" xmlns="http://www.w3.org/2000/svg" xmlns:xlink="http://www.w3.org/1999/xlink" x="0px" y="0px"
	 viewBox="0 0 64 80" style="enable-background:new 0 0 64 80;" xml:space="preserve">
<g>
	<path d="M55.9,44.4c4.65-8.77,1.32-19.65-7.45-24.3C45.85,18.72,42.95,18,40,18c-0.58,0-1.15,0.03-1.72,0.09
		c-6.02-7.9-17.3-9.42-25.19-3.4c-7,5.33-9.11,14.94-4.99,22.71l-5.74,4.84c-0.42,0.36-0.47,0.99-0.11,1.41C2.44,43.87,2.71,44,3,44
		h11.06c2.94,1.96,6.4,3,9.94,3c0.58,0,1.15-0.03,1.72-0.09c5.73,7.54,16.33,9.33,24.22,4.09H61c0.55,0,1-0.45,1-1
		c0-0.3-0.13-0.58-0.36-0.77L55.9,44.4z M24,45c-3.24,0-6.4-0.98-9.07-2.82C14.77,42.06,14.57,42,14.37,42H5.74l4.28-3.61
		c0.37-0.32,0.46-0.85,0.22-1.27c-4.5-7.59-1.99-17.39,5.6-21.89c6.62-3.92,15.11-2.57,20.17,3.23
		c-9.67,2.18-15.75,11.78-13.57,21.45c0.4,1.78,1.07,3.49,1.98,5.06C24.28,44.98,24.14,45,24,45z M26.63,44.76
		c-4.85-7.36-2.81-17.26,4.56-22.11c1.87-1.23,3.98-2.05,6.18-2.42c4.85,7.36,2.81,17.26-4.56,22.11
		C30.95,43.58,28.84,44.4,26.63,44.76z M49.63,49c-0.2,0-0.4,0.06-0.57,0.18c-6.67,4.61-15.74,3.47-21.07-2.64
		c9.67-2.18,15.75-11.78,13.57-21.45c-0.4-1.78-1.07-3.49-1.99-5.07c0.14,0,0.28-0.02,0.42-0.02c8.82-0.01,15.99,7.13,16,15.95
		c0,2.87-0.77,5.69-2.23,8.17c-0.25,0.42-0.16,0.96,0.22,1.27L58.26,49H49.63z"/>
	<rect x="31" y="31" width="2" height="2"/>
	<rect x="27" y="31" width="2" height="2"/>
	<rect x="35" y="31" width="2" height="2"/>
</g>
</svg>
