<svg id="Layer_1" data-name="Layer 1" xmlns="http://www.w3.org/2000/svg" viewBox="0 0 69.05 70.8"><defs><style>.cls-1{fill:#47b89e;}</style></defs><path class="cls-1" d="M30.53,4.05A7.56,7.56,0,0,1,33,2.15a7.93,7.93,0,0,1,3.2-.7,7.6,7.6,0,0,1,5.2,1.9A5.81,5.81,0,0,1,43.63,8a7.06,7.06,0,0,1-.6,2.8,10.58,10.58,0,0,1-1.8,2.7l-15.4,16.3H70v14H25.43l15.7,15.7a8,8,0,0,1,1.8,2.7,8.53,8.53,0,0,1,.6,3.1,6.57,6.57,0,0,1-2.1,5,7.08,7.08,0,0,1-5.2,2,6.7,6.7,0,0,1-3.1-.7,8.32,8.32,0,0,1-2.6-1.9L1.43,38.05a1.69,1.69,0,0,1,0-2.3Z" transform="translate(-0.98 -1.45)"/></svg>