<?xml version="1.0" encoding="utf-8"?>
<!-- Generator: Adobe Illustrator 26.1.0, SVG Export Plug-In . SVG Version: 6.00 Build 0)  -->
<svg version="1.1" id="Capa_1" xmlns="http://www.w3.org/2000/svg" xmlns:xlink="http://www.w3.org/1999/xlink" x="0px" y="0px"
	 viewBox="0 0 59.99 59.99" style="enable-background:new 0 0 59.99 59.99;" xml:space="preserve">
<path d="M59.97,20.16c0.01-0.04,0.01-0.08,0.01-0.12c0-0.05,0-0.1,0-0.15c0-0.04-0.01-0.08-0.02-0.12
	c-0.01-0.05-0.03-0.09-0.04-0.14c-0.01-0.02-0.01-0.05-0.02-0.07c-0.01-0.02-0.02-0.03-0.03-0.05s-0.01-0.03-0.02-0.05l-10-16
	c-0.05-0.07-0.1-0.14-0.16-0.2c0,0,0,0,0,0c-0.09-0.08-0.19-0.14-0.3-0.18c-0.01-0.01-0.02-0.02-0.04-0.02c-0.01,0-0.02,0-0.03-0.01
	C49.21,3.01,49.1,2.99,49,2.99H11c-0.11,0-0.21,0.02-0.31,0.06c-0.01,0-0.02,0-0.03,0.01c-0.02,0.01-0.02,0.02-0.04,0.02
	c-0.1,0.04-0.2,0.1-0.29,0.17c-0.01,0.01-0.01,0.01-0.02,0.01c-0.06,0.06-0.12,0.12-0.16,0.2l-10,16c-0.01,0.02-0.01,0.03-0.02,0.05
	s-0.02,0.03-0.03,0.05c-0.01,0.02-0.01,0.05-0.02,0.07c-0.02,0.05-0.03,0.09-0.04,0.14c-0.01,0.04-0.02,0.08-0.02,0.12
	C0,19.94,0,19.99,0,20.04c0,0.04,0.01,0.08,0.01,0.12c0.01,0.05,0.02,0.09,0.04,0.14c0.01,0.04,0.03,0.08,0.05,0.11
	c0.01,0.02,0.01,0.04,0.02,0.06c0.02,0.03,0.04,0.05,0.06,0.08c0.01,0.02,0.02,0.04,0.04,0.06L29.2,56.6c0,0,0,0.01,0.01,0.01
	l0,0.01c0,0,0.01,0.01,0.01,0.01c0.08,0.1,0.18,0.17,0.3,0.23c0.03,0.02,0.06,0.03,0.09,0.04c0.12,0.05,0.25,0.09,0.38,0.09
	c0.11,0,0.23-0.02,0.34-0.06c0.02-0.01,0.03-0.02,0.05-0.03c0.05-0.02,0.09-0.06,0.14-0.08c0.08-0.05,0.15-0.1,0.21-0.16
	c0.01-0.01,0.03-0.02,0.05-0.04l29-36c0.02-0.02,0.02-0.04,0.04-0.06c0.02-0.03,0.04-0.05,0.06-0.08c0.01-0.02,0.01-0.04,0.02-0.06
	c0.02-0.04,0.03-0.08,0.04-0.11C59.95,20.26,59.96,20.21,59.97,20.16z M32.1,4.99h15.46l-4.86,13.05L32.1,4.99z M40.89,18.99h-21.8
	l10.9-13.41L40.89,18.99z M17.22,18.12l-4.8-13.13h15.47L17.22,18.12z M41.59,20.99L29.82,52.6L18.27,20.99H41.59z M49.22,6.25
	l7.97,12.75H44.47L49.22,6.25z M10.76,6.26l4.65,12.73H2.8L10.76,6.26z M16.14,20.99l10.84,29.66L3.08,20.99H16.14z M32.39,51.42
	l11.34-30.43H56.9L32.39,51.42z"/>
</svg>
