<?xml version="1.0" encoding="utf-8"?>
<!-- Generator: Adobe Illustrator 26.1.0, SVG Export Plug-In . SVG Version: 6.00 Build 0)  -->
<svg version="1.1" id="Layer_1" xmlns="http://www.w3.org/2000/svg" xmlns:xlink="http://www.w3.org/1999/xlink" x="0px" y="0px"
	 viewBox="0 0 100 125" style="enable-background:new 0 0 100 125;" xml:space="preserve">
<g>
	<path d="M36.24,76.58c-14.66-7.57-20.4-25.59-12.83-40.25l1.06,4.65c0.09,0.4,0.45,0.68,0.86,0.68h0.19c0.45-0.1,0.74-0.54,0.66-1
		l-1.56-6.86c-0.06-0.22-0.2-0.41-0.39-0.54c-0.2-0.13-0.44-0.17-0.67-0.12l-6.85,1.57c-0.05,0.01-0.1,0.02-0.14,0.03
		c-0.46,0.15-0.72,0.64-0.57,1.11c0.15,0.46,0.64,0.72,1.11,0.57l4.59-1c-4.97,9.68-4.66,21.23,0.82,30.63
		c8.87,15.2,28.39,20.34,43.59,11.46l-1-1.73C56.26,80.99,45.36,81.29,36.24,76.58z"/>
	<path d="M83.92,64.16c-0.11-0.47-0.58-0.77-1.05-0.66l-4.47,1c4.98-9.75,4.6-21.38-1-30.79c-9-15.13-28.56-20.09-43.68-11.09
		l1,1.72c8.83-5.26,19.75-5.61,28.9-0.93c14.68,7.52,20.5,25.51,12.98,40.2l-1.1-4.77c-0.01-0.05-0.02-0.1-0.03-0.14
		c-0.15-0.46-0.64-0.72-1.11-0.57s-0.72,0.64-0.57,1.11l1.57,6.85c0.05,0.23,0.19,0.43,0.39,0.55c0.14,0.09,0.3,0.13,0.46,0.13
		c0.07,0.01,0.13,0.01,0.2,0l6.85-1.57C83.72,65.09,84.02,64.63,83.92,64.16z"/>
	<path d="M40.81,54h-2.37v0.37c-0.04,1.65,0.23,3.28,0.79,4.83c0.48,1.26,1.24,2.41,2.22,3.34c0.99,0.9,2.16,1.59,3.43,2
		c1.3,0.43,2.64,0.72,4,0.86v3.78H51l-0.04-3.72c1.21-0.05,2.4-0.21,3.58-0.49c1.25-0.28,2.45-0.79,3.52-1.5
		c1.04-0.7,1.9-1.63,2.52-2.72c0.69-1.28,1.04-2.71,1-4.16c0-0.88-0.12-1.75-0.36-2.59c-0.24-0.85-0.65-1.65-1.22-2.33
		c-0.68-0.76-1.49-1.39-2.4-1.87c-1.14-0.6-2.35-1.05-3.6-1.33l-3-0.74V35.24c1.88,0.02,3.7,0.63,5.2,1.76
		c1.35,1.09,2.12,3,2.31,5.65V43h2.35v-0.41c-0.12-3.33-1.11-5.79-2.94-7.33c-1.98-1.54-4.41-2.38-6.92-2.37V30.8h-2.09v2.1
		c-1.76,0.02-3.49,0.41-5.09,1.15c-1.17,0.57-2.2,1.4-3,2.43c-0.62,0.81-1.05,1.76-1.24,2.77c-0.13,0.69-0.2,1.38-0.22,2.08
		c-0.04,1.18,0.2,2.35,0.7,3.42c0.44,0.88,1.07,1.65,1.85,2.25c0.77,0.59,1.63,1.07,2.54,1.4c0.89,0.33,1.81,0.6,2.74,0.8l1.71,0.4
		v13.48c-2.25-0.04-4.4-0.94-6-2.53c-1.45-1.72-2.2-3.92-2.09-6.17V54z M51,63.08v-13l2.15,0.5c1.73,0.34,3.34,1.13,4.67,2.28
		c0.96,0.98,1.47,2.32,1.42,3.69c0.03,1.04-0.2,2.07-0.68,3c-0.44,0.8-1.08,1.49-1.84,2c-0.83,0.55-1.75,0.94-2.72,1.16
		C53.02,62.94,52.01,63.06,51,63.08z M47.6,46.87c-0.8-0.18-1.59-0.41-2.36-0.69c-0.67-0.23-1.29-0.57-1.85-1
		c-0.51-0.41-0.93-0.94-1.21-1.53c-0.32-0.73-0.48-1.52-0.45-2.32c-0.01-0.79,0.13-1.58,0.4-2.33c0.27-0.71,0.71-1.35,1.29-1.85
		c0.68-0.58,1.47-1.03,2.32-1.31c1.02-0.34,2.08-0.53,3.15-0.58l-0.01,11.89L47.6,46.87z"/>
</g>
</svg>
