<svg id="Layer_1" data-name="Layer 1" xmlns="http://www.w3.org/2000/svg" viewBox="0 0 67.98 63.73"><path d="M36.24,76.58A29.87,29.87,0,0,1,23.41,36.33L24.47,41a.88.88,0,0,0,.86.68h.19a.87.87,0,0,0,.66-1L24.62,33.8a1,1,0,0,0-.39-.54.88.88,0,0,0-.67-.12l-6.85,1.57-.14,0a.88.88,0,1,0,.54,1.68l4.59-1A31.87,31.87,0,0,0,66.11,77.51l-1-1.73A29.88,29.88,0,0,1,36.24,76.58Z" transform="translate(-15.96 -18.13)"/><path d="M83.92,64.16a.88.88,0,0,0-1-.66l-4.47,1A31.87,31.87,0,0,0,33.72,22.62l1,1.72A29.87,29.87,0,0,1,76.6,63.61l-1.1-4.77,0-.14a.88.88,0,0,0-1.68.54l1.57,6.85a.87.87,0,0,0,.85.68.67.67,0,0,0,.2,0l6.85-1.57A.88.88,0,0,0,83.92,64.16Z" transform="translate(-15.96 -18.13)"/><path d="M40.81,54H38.44v.37a13.24,13.24,0,0,0,.79,4.83,9.06,9.06,0,0,0,2.22,3.34,9.42,9.42,0,0,0,3.43,2,18.9,18.9,0,0,0,4,.86v3.78H51l0-3.72A18.81,18.81,0,0,0,54.54,65a10.56,10.56,0,0,0,3.52-1.5,8.1,8.1,0,0,0,2.52-2.72,8.28,8.28,0,0,0,1-4.16A9.42,9.42,0,0,0,61.22,54,6.28,6.28,0,0,0,60,51.67a8.59,8.59,0,0,0-2.4-1.87A14.58,14.58,0,0,0,54,48.47l-3-.74V35.24A8.78,8.78,0,0,1,56.2,37c1.35,1.09,2.12,3,2.31,5.65V43h2.35v-.41c-.12-3.33-1.11-5.79-2.94-7.33A11.19,11.19,0,0,0,51,32.89V30.8H48.91v2.1a12.44,12.44,0,0,0-5.09,1.15,8.53,8.53,0,0,0-3,2.43,6.56,6.56,0,0,0-1.24,2.77,13.22,13.22,0,0,0-.22,2.08,7.47,7.47,0,0,0,.7,3.42A6.5,6.5,0,0,0,41.91,47a9.55,9.55,0,0,0,2.54,1.4,20,20,0,0,0,2.74.8l1.71.4V63.08a8.72,8.72,0,0,1-6-2.53,8.89,8.89,0,0,1-2.09-6.17ZM51,63.08v-13l2.15.5a10.13,10.13,0,0,1,4.67,2.28,5,5,0,0,1,1.42,3.69,6.14,6.14,0,0,1-.68,3,5.78,5.78,0,0,1-1.84,2A8.2,8.2,0,0,1,54,62.71,14.4,14.4,0,0,1,51,63.08ZM47.6,46.87a19.32,19.32,0,0,1-2.36-.69,6.5,6.5,0,0,1-1.85-1,4.4,4.4,0,0,1-1.21-1.53,5.28,5.28,0,0,1-.45-2.32,6.64,6.64,0,0,1,.4-2.33,4.6,4.6,0,0,1,1.29-1.85,6.93,6.93,0,0,1,2.32-1.31,11.68,11.68,0,0,1,3.15-.58V47.15Z" transform="translate(-15.96 -18.13)"/></svg>