<?xml version="1.0" encoding="utf-8"?>
<!-- Generator: Adobe Illustrator 26.1.0, SVG Export Plug-In . SVG Version: 6.00 Build 0)  -->
<svg version="1.1" id="Layer_1" xmlns="http://www.w3.org/2000/svg" xmlns:xlink="http://www.w3.org/1999/xlink" x="0px" y="0px"
	 viewBox="0 0 30.54 23.65" style="enable-background:new 0 0 30.54 23.65;" xml:space="preserve">
<g>
	<path d="M19.69,4l-1.92,2.17c-0.18,0.21-0.16,0.52,0.04,0.71C17.9,6.96,18.02,7,18.14,7c0.14,0,0.28-0.06,0.37-0.17l2.66-3
		c0.02-0.02,0.02-0.04,0.03-0.06c0.02-0.03,0.04-0.06,0.05-0.09c0.01-0.03,0.02-0.06,0.02-0.09c0.01-0.03,0.01-0.06,0.01-0.09
		s-0.01-0.06-0.01-0.09c-0.01-0.03-0.01-0.06-0.02-0.09c-0.01-0.03-0.03-0.06-0.05-0.09c-0.01-0.02-0.02-0.04-0.03-0.06l-2.66-3
		c-0.18-0.21-0.5-0.23-0.71-0.04c-0.21,0.18-0.23,0.5-0.04,0.71L19.69,3H6.8C6.75,3,6.7,3.01,6.65,3.03C6.6,3.01,6.55,3,6.5,3
		C3.59,3,1.02,4.96,0.24,7.76c-0.96,3.45,1.06,7.04,4.52,8.01c0.04,0.01,0.09,0.02,0.13,0.02c0.22,0,0.42-0.14,0.48-0.37
		c0.07-0.27-0.08-0.54-0.35-0.62C2.1,13.98,0.39,10.95,1.2,8.02C1.86,5.65,4.04,4,6.5,4c0.05,0,0.1-0.01,0.15-0.03
		C6.7,3.99,6.75,4,6.8,4H19.69z"/>
	<path d="M29.53,5.92c-0.94-1.46-2.39-2.47-4.08-2.85c-0.27-0.06-0.54,0.11-0.6,0.38c-0.06,0.27,0.11,0.54,0.38,0.6
		c2.96,0.65,4.84,3.59,4.19,6.55c-0.55,2.51-2.81,4.32-5.37,4.32c-0.02,0-0.03,0-0.05,0c-0.06,0-0.12,0.01-0.17,0.03
		c-0.05-0.02-0.11-0.03-0.17-0.03H10.77l1.93-2.17c0.18-0.21,0.17-0.52-0.04-0.71s-0.52-0.17-0.71,0.04l-2.67,3
		c-0.02,0.02-0.02,0.04-0.04,0.06c-0.02,0.03-0.04,0.05-0.05,0.09c-0.01,0.03-0.02,0.06-0.02,0.09c-0.01,0.03-0.01,0.06-0.01,0.09
		s0.01,0.06,0.01,0.09c0.01,0.03,0.01,0.06,0.02,0.09c0.01,0.03,0.03,0.06,0.05,0.09c0.01,0.02,0.02,0.04,0.04,0.06l2.67,3
		c0.1,0.11,0.24,0.17,0.37,0.17c0.12,0,0.24-0.04,0.33-0.13c0.21-0.18,0.22-0.5,0.04-0.71l-1.93-2.17h12.89
		c0.06,0,0.12-0.01,0.17-0.03c0.05,0.02,0.11,0.03,0.16,0.03c0.02,0,0.04,0,0.05,0c3.03,0,5.7-2.14,6.35-5.1
		C30.77,9.12,30.46,7.38,29.53,5.92z"/>
</g>
</svg>
