<svg id="Layer_1" data-name="Layer 1" xmlns="http://www.w3.org/2000/svg" viewBox="0 0 69.15 70.96"><defs><style>.cls-1{fill:#47b89e;}</style></defs><path class="cls-1" d="M40.79,3.83a7.53,7.53,0,0,0-2.55-1.92,7.43,7.43,0,0,0-3.16-.69,7.55,7.55,0,0,0-5.17,1.94,5.94,5.94,0,0,0-2.19,4.59,6.94,6.94,0,0,0,.61,2.8,9.69,9.69,0,0,0,1.84,2.72L45.61,29.56H1.38V43.61H46L30.36,59.28A8.3,8.3,0,0,0,28.54,62a8.11,8.11,0,0,0-.63,3.14,6.7,6.7,0,0,0,2.12,5,7.65,7.65,0,0,0,8.33,1.37A7.88,7.88,0,0,0,41,69.57L70.08,37.93a1.72,1.72,0,0,0,0-2.32Z" transform="translate(-1.38 -1.22)"/></svg>